<svg width="16" height="16" viewBox="0 0 16 16" fill="none" xmlns="http://www.w3.org/2000/svg">
<path d="M0.888889 7.11111H6.22222C6.45797 7.11111 6.68406 7.01746 6.85076 6.85076C7.01746 6.68406 7.11111 6.45797 7.11111 6.22222V0.888889C7.11111 0.653141 7.01746 0.427049 6.85076 0.260349C6.68406 0.0936505 6.45797 0 6.22222 0H0.888889C0.653141 0 0.427049 0.0936505 0.260349 0.260349C0.0936505 0.427049 0 0.653141 0 0.888889V6.22222C0 6.45797 0.0936505 6.68406 0.260349 6.85076C0.427049 7.01746 0.653141 7.11111 0.888889 7.11111ZM1.77778 1.77778H5.33333V5.33333H1.77778V1.77778ZM15.1111 0H9.77778C9.54203 0 9.31594 0.0936505 9.14924 0.260349C8.98254 0.427049 8.88889 0.653141 8.88889 0.888889V6.22222C8.88889 6.45797 8.98254 6.68406 9.14924 6.85076C9.31594 7.01746 9.54203 7.11111 9.77778 7.11111H15.1111C15.3469 7.11111 15.573 7.01746 15.7397 6.85076C15.9064 6.68406 16 6.45797 16 6.22222V0.888889C16 0.653141 15.9064 0.427049 15.7397 0.260349C15.573 0.0936505 15.3469 0 15.1111 0ZM14.2222 5.33333H10.6667V1.77778H14.2222V5.33333ZM6.22222 16C6.45797 16 6.68406 15.9064 6.85076 15.7397C7.01746 15.573 7.11111 15.3469 7.11111 15.1111V9.77778C7.11111 9.54203 7.01746 9.31594 6.85076 9.14924C6.68406 8.98254 6.45797 8.88889 6.22222 8.88889H0.888889C0.653141 8.88889 0.427049 8.98254 0.260349 9.14924C0.0936505 9.31594 0 9.54203 0 9.77778V15.1111C0 15.3469 0.0936505 15.573 0.260349 15.7397C0.427049 15.9064 0.653141 16 0.888889 16H6.22222ZM1.77778 10.6667H5.33333V14.2222H1.77778V10.6667ZM13.3333 9.77778H11.5556V11.5556H9.77778V13.3333H11.5556V15.1111H13.3333V13.3333H15.1111V11.5556H13.3333V9.77778Z" fill="#C2C2C2"/>
</svg>
